PathFileType	4	(X/Y/Z)	C:/Users/opensim2020/Desktop/walking_exp_matlab/subject01_walking09_straight_02.trc																																																																																																																															
DataRate	CameraRate	NumFrames	NumMarkers	Units	OrigDataRate	OrigDataStartFrame	OrigNumFrames																																																																																																																											
100	100	4	43	mm	100	2072	362																																																																																																																											
Frame#	Time	LFHD			RFHD			LBHD			RBHD			C7			T10			CLAV			STRN			RBAK			LSHO			LUPA			LELB			LFRM			LWRA			LWRB			LFIN			RSHO			RUPA			RELB			RFRM			RWRA			RWRB			RFIN			LASI			RASI			LPSI			RPSI			LTHI			LKNE			LTIB			LANK			LHEE			LTOE			RTHI			RKNE			RTIB			RANK			RHEE			RTOE			*39			*40			*41			*42		
		X1	Y1	Z1	X2	Y2	Z2	X3	Y3	Z3	X4	Y4	Z4	X5	Y5	Z5	X6	Y6	Z6	X7	Y7	Z7	X8	Y8	Z8	X9	Y9	Z9	X10	Y10	Z10	X11	Y11	Z11	X12	Y12	Z12	X13	Y13	Z13	X14	Y14	Z14	X15	Y15	Z15	X16	Y16	Z16	X17	Y17	Z17	X18	Y18	Z18	X19	Y19	Z19	X20	Y20	Z20	X21	Y21	Z21	X22	Y22	Z22	X23	Y23	Z23	X24	Y24	Z24	X25	Y25	Z25	X26	Y26	Z26	X27	Y27	Z27	X28	Y28	Z28	X29	Y29	Z29	X30	Y30	Z30	X31	Y31	Z31	X32	Y32	Z32	X33	Y33	Z33	X34	Y34	Z34	X35	Y35	Z35	X36	Y36	Z36	X37	Y37	Z37	X38	Y38	Z38	X39	Y39	Z39	X40	Y40	Z40	X41	Y41	Z41	X42	Y42	Z42	X43	Y43	Z43
																																																																																																																																		
182	1.81	-72.92134	1657.94177	-1506.9021	-48.88762	1661.80225	-1395.94043	-192.25491	1626.21948	-1488.35437	-169.91119	1629.58301	-1369.66431	-242.67058	1426.89148	-1447.7002	-272.36917	1130.27405	-1432.59375	-99.9085	1357.35889	-1446.15405	-55.94804	1204.14221	-1451.2511	-295.30399	1228.72681	-1368.91309	-159.95763	1387.31726	-1607.41248	-174.37708	1202.87366	-1691.23547	-166.9575	1048.5625	-1694.47278	-85.01009	965.87616	-1716.03809	39.39013	904.52423	-1701.51563	-8.47589	871.59015	-1716.65759	63.79185	832.00275	-1733.10071	-164.96304	1387.37158	-1294.63831	-227.23653	1186.62256	-1195.35193	-228.82051	1062.33594	-1195.24524	-208.9733	943.91797	-1166.47913	-137.99492	822.11102	-1187.91589	-180.21094	825.60669	-1147.80347	-147.56073	747.14642	-1149.26477	-93.10216	921.59454	-1546.44458	-77.58164	934.46063	-1328.89746	-274.58612	939.76312	-1479.23474	-262.50665	945.74164	-1333.91406	-176.14638	590.82428	-1589.05017	-213.78506	459.68173	-1576.47192	-350.62674	326.72037	-1582.19763	-487.09543	152.4706	-1533.06628	-535.53259	156.49983	-1478.3877	-395.71906	34.44777	-1525.57654	-76.43358	604.68793	-1271.08142	-39.9737	452.99341	-1304.8031	-59.35907	277.3735	-1297.76331	-52.70571	73.46157	-1349.39966	-100.6344	34.67601	-1399.05029	87.99527	38.5466	-1355.38086	-58.91799	1696.49011	-1417.55212	-1973.23572	1023.43402	3101.86841	-2012.50415	1021.97455	3140.62769	NaN	NaN	NaN
183	1.82	-65.50925	1658.7041	-1504.94604	-41.21611	1662.35315	-1394.0459	-184.80965	1626.94775	-1486.26392	-161.95946	1630.11292	-1367.24292	-234.98785	1427.40686	-1446.03088	-264.41211	1130.85815	-1431.20679	-92.10429	1358.25354	-1444.61401	-47.97459	1204.98828	-1449.73254	-287.22626	1229.27722	-1367.0116	-152.3161	1388.07898	-1605.66113	-166.81433	1203.71021	-1689.59705	-160.71245	1049.29138	-1692.16235	-80.04252	965.39923	-1714.0874	43.6272	902.16742	-1699.75903	-4.76642	870.0304	-1715.0575	66.98725	829.39008	-1731.46497	-156.95346	1388.20459	-1293.19897	-218.81819	1187.34558	-1193.69714	-220.03951	1063.13245	-1193.86267	-200.09227	944.82465	-1165.26892	-129.41896	822.80829	-1186.92993	-171.35988	826.46851	-1146.65405	-138.70348	747.73822	-1148.19971	-84.82008	922.49286	-1544.64807	-69.27911	935.13989	-1327.35901	-266.08731	940.7323	-1477.88831	-254.0674	946.78357	-1332.55884	-163.38039	590.4801	-1588.77625	-199.59407	459.40176	-1576.96399	-339.39767	329.92673	-1582.43225	-479.2012	158.11829	-1533.49988	-526.38354	164.36386	-1478.13367	-394.78183	35.01201	-1525.42749	-70.67662	604.65582	-1270.29919	-34.78356	452.54691	-1304.21399	-55.62551	277.27084	-1297.97742	-51.85662	73.41499	-1349.73718	-100.53153	34.81238	-1399.15613	88.81079	37.84452	-1356.03943	-51.40511	1697.0498	-1415.59583	-1973.14575	1023.53949	3101.89551	-2012.52808	1021.98462	3140.74463	NaN	NaN	NaN
184	1.83	-58.14274	1659.41968	-1503.02966	-33.55697	1662.86218	-1392.25513	-177.40244	1627.57642	-1484.18787	-154.48415	1630.45801	-1365.54541	-227.37836	1427.89392	-1444.51355	-256.45996	1131.36096	-1429.62671	-84.49335	1358.9386	-1443.0918	-40.09445	1205.7688	-1448.24731	-279.15143	1229.77283	-1364.95801	-144.76987	1388.72681	-1603.99097	-159.3243	1204.50098	-1688.16956	-154.52768	1049.93799	-1689.90247	-75.22838	964.85248	-1712.18799	47.56987	899.70459	-1698.10986	-1.2833	868.38409	-1713.37085	69.96639	826.68396	-1729.8728	-149.07666	1388.99426	-1291.70813	-210.41396	1188.08936	-1191.95007	-211.27722	1063.83704	-1192.39746	-191.09625	945.49347	-1163.89502	-120.15961	823.61261	-1185.7417	-162.13422	827.25958	-1145.48877	-129.66618	748.37671	-1147.203	-76.62706	923.33856	-1542.896	-61.04362	935.80194	-1325.84326	-257.86267	941.5202	-1476.43176	-245.73799	947.65631	-1331.07227	-150.24168	590.10107	-1588.57666	-184.82396	458.953	-1577.71277	-327.67526	333.18094	-1582.56763	-470.76352	164.01222	-1534.0946	-516.64948	172.34419	-1478.10828	-393.38138	36.18985	-1525.58215	-65.38128	604.30505	-1269.56006	-29.52026	452.08188	-1303.74695	-52.21572	277.32858	-1298.2301	-51.05176	73.34864	-1350.00171	-100.29977	34.92574	-1399.22302	89.6655	37.00962	-1356.45715	-43.56875	1697.70325	-1413.57715	-1973.1145	1023.48016	3101.89722	-2012.48389	1021.9425	3140.59033	NaN	NaN	NaN
185	1.84	-50.84467	1660.0072	-1501.24817	-26.07265	1663.21497	-1390.39734	-170.0544	1628.08936	-1482.20056	-146.87363	1630.65637	-1363.53198	-219.83553	1428.13281	-1442.79102	-248.56816	1131.79272	-1427.95667	-76.85787	1359.60388	-1441.63855	-32.24282	1206.47815	-1446.82837	-271.11575	1230.23877	-1362.85522	-137.2543	1389.24011	-1602.36133	-152.0365	1205.12195	-1686.57141	-148.48784	1050.39612	-1687.73096	-70.56588	964.1037	-1710.26892	51.40734	897.16327	-1696.53442	1.98968	866.66919	-1711.86609	72.72845	823.7041	-1728.29626	-141.06813	1389.56873	-1290.12183	-201.92355	1188.76526	-1190.10803	-202.57303	1064.47339	-1190.79053	-182.09045	946.17371	-1162.48962	-111.19743	824.23846	-1184.72913	-152.78149	827.89093	-1144.125	-120.38065	748.95349	-1146.26306	-68.7313	924.09729	-1541.22473	-53.04088	936.02673	-1324.30396	-249.98862	942.08142	-1474.88	-237.59459	948.39935	-1329.495	-137.06219	589.69214	-1588.45081	-170.12398	458.43228	-1578.10559	-315.32663	336.3421	-1582.6698	-461.67767	169.75591	-1534.53931	-506.53735	180.27132	-1478.27051	-391.22137	37.45071	-1524.69617	-60.60173	603.90039	-1268.95142	-24.93667	451.46164	-1303.12891	-49.66711	276.85678	-1298.71973	-50.30614	73.18102	-1350.36011	-100.07732	35.19685	-1399.40723	90.38399	36.44309	-1356.87378	-36.1498	1698.0415	-1411.6051	-1973.2207	1023.49091	3101.89575	-2012.51477	1022.04602	3140.65112	NaN	NaN	NaN
